<svg id="Layer_2" viewBox="0 0 512 512" xmlns="http://www.w3.org/2000/svg" xmlns:xlink="http://www.w3.org/1999/xlink" data-name="Layer 2" width="300" height="300" version="1.1" xmlns:svgjs="http://svgjs.dev/svgjs"><circle r="256" cx="256" cy="256" shape="true" transform="matrix(1,0,0,1,0,0)" fill-opacity="1" fill="#f23a3a" style=""/><g width="100%" height="100%" transform="matrix(1,0,0,1,0,0)"><linearGradient id="linear-gradient" gradientUnits="userSpaceOnUse" x1="74.98" x2="437.02" y1="74.98" y2="437.02"><stop stop-opacity="1" stop-color="#ff42c7" offset="0"/><stop stop-opacity="1" stop-color="#0056eb" offset="1"/></linearGradient><g id="Icon"><g id="_06" data-name="06"><circle cx="256" cy="256" fill="url(#linear-gradient)" r="256" data-original-color="linear-gradient" stroke="none" stroke-opacity="1" style=""/><path d="m334.99 229.75c-1.88-1.88-4.42-2.93-7.07-2.93h-115.67c.66-1.35 1.01-2.85 1.01-4.38v-90.68h119.45c4.17 0 7.9-2.59 9.36-6.49l14.38-38.36c1.15-3.07.72-6.51-1.14-9.21-1.87-2.7-4.94-4.3-8.22-4.3h-157.74c-.82 0-1.63.1-2.43.3-16.36 4.09-27.17 14.9-31.25 31.25-.59 2.35-.29 4.74.7 6.78-.95 1.55-1.48 3.36-1.48 5.23v124.66c0 2.65 1.05 5.2 2.93 7.07l7.31 7.31-7.31 7.32c-1.87 1.88-2.93 4.42-2.93 7.07v134.24c0 .82.1 1.63.3 2.42 4.08 16.36 14.88 27.17 31.25 31.26.81.2 1.62.3 2.43.3 4.08 0 7.87-2.51 9.36-6.49l14.38-38.36c.42-1.12.64-2.31.64-3.51v-100.68c0-1.53-.35-3.03-1.01-4.38h115.67c2.65 0 5.2-1.05 7.07-2.93l19.17-19.18c3.9-3.91 3.9-10.24 0-14.14l-19.17-19.17zm-145.64-146.35h157.74l-14.39 38.35h-128.97l-38.35-14.39c3.19-12.78 11.18-20.77 23.97-23.97zm-24.45 158.22v-124.66l38.35 14.39v91.09l-28.77 28.76zm38.35 148.63-14.39 38.35c-12.79-3.19-20.78-11.19-23.97-23.98v-134.24l9.58-9.59 28.77 28.77v100.68zm124.66-115.07h-124.66l-19.18-19.18 19.18-19.17h124.66l19.17 19.17z" fill="#ffffff" fill-opacity="1" data-original-color="#ffffffff" stroke="none" stroke-opacity="1" style=""/></g></g></g></svg>